<?xml version="1.0" encoding="utf-8"?>
<!-- Generator: Adobe Illustrator 25.0.0, SVG Export Plug-In . SVG Version: 6.00 Build 0)  -->
<svg version="1.1" xmlns="http://www.w3.org/2000/svg" xmlns:xlink="http://www.w3.org/1999/xlink" x="0px" y="0px"
	 viewBox="0 0 1000 1000" style="enable-background:new 0 0 1000 1000;" xml:space="preserve">
<style type="text/css">
	.st0{fill:#005458;}
</style>
<g id="Your_design">
</g>
<g id="Guides">
	<g>
		<path id="XMLID_2569_" class="st0" d="M449.33,354.55c9.25-20.53,19.98-37.97,31.43-52.79c4.17-5.4,3.49-13.02-1.56-17.61
			c-30.1-27.4-60.75-38.99-78.23-43.71c-5.64-1.52-11.57,0.94-14.48,6c-9.02,15.69-22.51,45.56-24.42,86.22
			c-0.32,6.81,4.58,12.68,11.35,13.55c18.57,2.38,38.5,7.13,59.56,15.1C439.37,363.74,446.52,360.78,449.33,354.55z"/>
		<path id="XMLID_2566_" class="st0" d="M361.39,433c-7.98-21.07-12.76-41-15.15-59.58c-0.87-6.76-6.74-11.66-13.55-11.34
			c-40.67,1.91-70.54,15.39-86.24,24.42c-5.06,2.91-7.52,8.85-6,14.48c4.72,17.48,16.3,48.14,43.71,78.25
			c4.59,5.04,12.21,5.73,17.6,1.56c14.83-11.45,32.31-22.17,52.85-31.42C360.85,446.55,363.81,439.39,361.39,433z"/>
		<path id="XMLID_2563_" class="st0" d="M519.22,301.77c11.45,14.83,22.17,32.31,31.42,52.85c2.81,6.23,9.97,9.2,16.36,6.78
			c21.07-7.98,41-12.76,59.59-15.15c6.76-0.87,11.66-6.74,11.34-13.55c-1.91-40.67-15.39-70.55-24.42-86.25
			c-2.91-5.06-8.85-7.52-14.48-6c-17.48,4.71-48.14,16.3-78.25,43.72C515.74,288.75,515.05,296.37,519.22,301.77z"/>
		<path id="XMLID_2560_" class="st0" d="M637.06,554.32c-1,0.42-2.05,0.81-3.07,1.22c10.8,25.32,16.95,49.13,19.77,71.05
			c0.87,6.76,6.74,11.66,13.55,11.34c40.67-1.9,70.54-15.38,86.24-24.41c5.06-2.91,7.52-8.85,6-14.48
			c-4.72-17.48-16.3-48.13-43.71-78.24c-4.6-5.05-12.23-5.72-17.63-1.55C681.42,532.23,661.27,544.29,637.06,554.32z"/>
		<path id="XMLID_2557_" class="st0" d="M479.22,715.84c5.04-4.59,5.73-12.21,1.56-17.6c-13.51-17.49-25.99-38.67-36.26-64.22
			c-1.01,0.43-2.03,0.89-3.03,1.31c-24.21,10.03-46.99,15.75-68.04,18.44c-6.77,0.87-11.69,6.74-11.37,13.56
			c1.91,40.66,15.39,70.53,24.42,86.23c2.91,5.06,8.85,7.52,14.48,6C418.45,754.84,449.11,743.25,479.22,715.84z"/>
		<g>
			<path id="XMLID_2554_" class="st0" d="M474.1,373.98c14.42,0.19,37.37,0.19,51.79,0.01c6.42-0.08,10.71-6.72,8.08-12.58
				c-8.02-17.84-17.14-33.16-26.85-46.27c-3.52-4.76-10.74-4.76-14.26,0c-9.71,13.11-18.83,28.42-26.85,46.26
				C463.4,367.25,467.69,373.89,474.1,373.98z"/>
			<path id="XMLID_2551_" class="st0" d="M392.58,429.2c10.33-10.07,26.56-26.29,36.63-36.62c4.48-4.6,2.82-12.33-3.18-14.61
				c-18.29-6.95-35.57-11.32-51.7-13.73c-5.86-0.87-10.96,4.23-10.08,10.08c2.41,16.13,6.78,33.41,13.73,51.69
				C380.25,432.02,387.98,433.68,392.58,429.2z"/>
			<path id="XMLID_2548_" class="st0" d="M373.98,525.9c0.19-14.42,0.19-37.37,0.01-51.79c-0.08-6.42-6.72-10.71-12.58-8.08
				c-17.84,8.02-33.16,17.14-46.27,26.85c-4.76,3.52-4.76,10.74,0,14.26c13.11,9.71,28.42,18.83,46.26,26.85
				C367.25,536.61,373.89,532.32,373.98,525.9z"/>
			<path id="XMLID_2545_" class="st0" d="M429.2,607.43c-10.07-10.33-26.29-26.56-36.62-36.63c-4.6-4.48-12.33-2.82-14.61,3.18
				c-6.95,18.29-11.32,35.57-13.73,51.7c-0.87,5.86,4.23,10.96,10.08,10.08c16.13-2.41,33.41-6.78,51.69-13.73
				C432.02,619.75,433.68,612.03,429.2,607.43z"/>
			<path id="XMLID_2542_" class="st0" d="M525.9,626.03c-14.42-0.19-37.37-0.19-51.79-0.01c-6.42,0.08-10.71,6.72-8.08,12.58
				c8.02,17.84,17.14,33.16,26.85,46.27c3.52,4.76,10.74,4.76,14.26,0c9.71-13.11,18.83-28.42,26.85-46.26
				C536.61,632.75,532.32,626.11,525.9,626.03z"/>
			<path id="XMLID_2539_" class="st0" d="M607.43,570.8c-10.33,10.07-26.56,26.29-36.63,36.62c-4.48,4.6-2.82,12.33,3.18,14.61
				c18.28,6.95,35.57,11.32,51.7,13.73c5.86,0.87,10.96-4.23,10.08-10.08c-2.41-16.13-6.78-33.41-13.73-51.69
				C619.75,567.99,612.02,566.32,607.43,570.8z"/>
			<path id="XMLID_2536_" class="st0" d="M626.03,474.11c-0.19,14.42-0.19,37.37-0.01,51.79c0.08,6.42,6.72,10.71,12.58,8.08
				c17.84-8.02,33.16-17.14,46.27-26.85c4.76-3.52,4.76-10.74,0-14.26c-13.11-9.71-28.42-18.83-46.26-26.85
				C632.75,463.4,626.11,467.69,626.03,474.11z"/>
			<path id="XMLID_2533_" class="st0" d="M570.8,392.58c10.07,10.33,26.29,26.56,36.62,36.63c4.6,4.48,12.33,2.82,14.61-3.18
				c6.95-18.29,11.32-35.57,13.73-51.7c0.87-5.86-4.23-10.96-10.08-10.08c-16.13,2.41-33.41,6.78-51.69,13.73
				C567.98,380.25,566.32,387.98,570.8,392.58z"/>
		</g>
		<path id="XMLID_2530_" class="st0" d="M550.66,645.43c-9.18,20.37-19.81,37.72-31.16,52.46c-4.16,5.41-3.46,13.03,1.59,17.61
			c30,27.17,60.52,38.98,77.9,43.87c5.67,1.59,11.68-0.87,14.61-5.97c9.02-15.73,22.42-45.54,24.33-86.07
			c0.32-6.81-4.58-12.68-11.35-13.55c-18.58-2.39-38.5-7.15-59.56-15.12C560.62,636.24,553.47,639.2,550.66,645.43z"/>
		<path id="XMLID_2525_" class="st0" d="M246.45,613.51c15.69,9.02,45.56,22.51,86.23,24.41c6.81,0.32,12.68-4.58,13.55-11.35
			c2.38-18.57,7.13-38.5,15.1-59.55c2.42-6.39-0.55-13.54-6.77-16.35c-20.52-9.25-37.97-19.98-52.78-31.43
			c-5.4-4.17-13.01-3.49-17.61,1.56c-27.41,30.1-38.99,60.75-43.71,78.23C238.93,604.66,241.38,610.6,246.45,613.51z"/>
		<path id="XMLID_2522_" class="st0" d="M753.55,386.49c-15.69-9.02-45.56-22.51-86.22-24.41c-6.81-0.32-12.68,4.58-13.55,11.35
			c-2.38,18.57-7.13,38.5-15.1,59.55c-2.42,6.39,0.55,13.54,6.77,16.35c20.52,9.25,37.97,19.98,52.78,31.43
			c5.4,4.17,13.02,3.49,17.61-1.56c27.4-30.1,38.99-60.74,43.71-78.23C761.07,395.34,758.62,389.4,753.55,386.49z"/>
	</g>
</g>
</svg>
